<?xml version="1.0" encoding="UTF-8"?>
<svg id="Layer_1" xmlns="http://www.w3.org/2000/svg" version="1.1" viewBox="0 0 841.89 595.28">
  <!-- Generator: Adobe Illustrator 29.2.1, SVG Export Plug-In . SVG Version: 2.1.0 Build 116)  -->
  <defs>
    <style>
      .st0 {
        fill: none;
      }

      .st1 {
        fill: #46a9f4;
      }

      .st2 {
        fill: #ed1a3f;
      }

      .st3 {
        fill: #f62305;
      }

      .st4 {
        fill: #3e3e4c;
      }
    </style>
  </defs>
  <g>
    <g>
      <path class="st0" d="M268.13,328.97c-.17.29-.23.41-.23.41,0,0,.12-.17.23-.41Z"/>
      <path class="st3" d="M249.67,321.76c-.37.06-.57.12-.57.12.05.03.25-.03.57-.12Z"/>
      <path class="st0" d="M268.13,328.97c-.17.29-.23.41-.23.41,0,0,.12-.17.23-.41Z"/>
    </g>
    <g>
      <path class="st2" d="M268.13,328.97c-.17.29-.23.41-.23.41,0,0,.12-.17.23-.41Z"/>
      <g>
        <path class="st2" d="M268.13,328.97c-.17.29-.23.41-.23.41,0,0,.12-.17.23-.41Z"/>
        <path class="st2" d="M268.13,328.97c-.17.29-.23.41-.23.41,0,0,.12-.17.23-.41Z"/>
        <g>
          <path class="st2" d="M268.13,328.97c-.17.29-.23.41-.23.41,0,0,.12-.17.23-.41Z"/>
          <g>
            <path class="st2" d="M268.13,328.97c-.17.29-.23.41-.23.41,0,0,.12-.17.23-.41Z"/>
            <polygon class="st2" points="230.19 259.62 234.96 253.86 234.9 253.86 229.67 257.35 225.77 256.71 224.9 268.4 228.27 258.63 230.19 259.62"/>
            <path class="st2" d="M268.13,328.97c-.17.29-.23.41-.23.41,0,0,.12-.17.23-.41Z"/>
            <g>
              <path class="st2" d="M268.13,328.97c-.17.29-.23.41-.23.41,0,0,.12-.17.23-.41Z"/>
              <polygon class="st1" points="273.83 278.41 280 268.81 275.46 266.6 275.46 263.34 272.72 268.23 275.69 270.67 273.83 278.41"/>
              <polygon class="st1" points="232.52 261.54 234.96 253.86 234.9 253.86 229.67 257.35 225.77 256.71 224.9 268.4 228.39 261.54 232.52 261.54"/>
              <path class="st1" d="M290.3,308.61c-5.66,1.23-9.27-8.33-9.53-9.03l6.91-5.86,2.15-4.71-.02-.02.02-.04-11.17-13.09s0,.02,0,.06h0s0,.17,0,.45c0,1.65-.12,6.75-1.63,6.99-.52.06-5.82,2.04-7.56.76-.12-.12-.23-.17-.35-.29h-.08c-4.23-3.61-6.84-12.04-6.84-12.04l1.63-7.45-10.24-5.7.47-9.54-9.13,10.47,4.89,11.64-.12-.06s-2.56,8.38-4.36,8.55c-.93.12-8.09.06-9.83-2.62-.87-1.45-3.55-3.61-4.19-6.46-.34-1.54-.95-4.8-1.15-5.87l.05-.42v-.06s-.07.09-.11.16c0-.02,0-.04,0-.04-.52.76-3.96,6.57-5.88,10.59l.99,5.18s3.43-1.8,4.89,2.39c.99,2.73-1.05,7.51-1.05,7.51l-1.87-.6s0-.04,0-.04v-.06l-4.36-1.4-1.69-3.61s-.02.03-.05.09v-.03s-8.91,16.23-5.54,32.52c3.37,16.29,8.84,13.5,12.39,14.37-.06-.03-.12-.07-.18-.11.08.02.16.03.24.05-1.34-.76-2.68-1.92-4.13-3.67-2.44-2.91-4.07-7.91-2.85-17.63.65-4.97,2.35-8.4,4.65-10.79.07-.07.14-.15.21-.22.1-.1.2-.19.3-.29,6.39-5.93,16.52-4.51,19.8-4.88,4.36-1.34,19.9-11.11,29.32,5.24,4.89,8.44,5.29,13.73,4.19,17.4-2.79,9.13-8.32,3.03-12.57,1.98-.09-.02-.7,1.22-1.63,2.34v-2.92c-9.08-3.32-15.59,1.28-22.98,8.73-.12.06-.29.17-.47.35l1.4,6.98c.17.99,1.16,1.57,2.09,1.4.99-.17,1.57-1.16,1.4-2.09l-1.34-6.81c-.06-.58.06-1.28.81-1.4s1.11.47,1.28.93l2.97,14.6c.17.99,1.16,1.57,2.09,1.4.99-.17,1.57-1.16,1.4-2.09l-2.97-14.9s.06-1.63,1.51-1.8c1.34-.17,1.75,1.05,1.8,1.34l.35,1.69,2.62,12.98c.17.99,1.16,1.57,2.09,1.4.99-.17,1.57-1.16,1.4-2.09l-2.44-12.16-.35-1.63c-.06-.35,0-.99.87-.99.58,0,.87.41,1.05.81l.17.81.99,5c.17.99,1.16,1.57,2.09,1.4.99-.17,1.57-1.16,1.4-2.09l-.81-3.96c.58-.06,1.28.06,1.8.58,1.07,1.13,2.02,2.51,2.3,2.97.01.04.02.08.03.11,0,.06.06.12.06.12,0,0,11.81-3.43,18.68-9.54,2.89-2.6,4.67-7.49,4.63-9.85,0-.95-.29-1.51-.9-1.38ZM267.9,329.38s.06-.12.23-.41c-.12.23-.23.41-.23.41Z"/>
              <path class="st1" d="M246.89,340.2c-1.05-.06-1.92.76-1.98,1.8-.06,1.05.76,1.98,1.8,1.98,1.05.06,1.92-.76,1.98-1.8.06-1.05-.76-1.98-1.8-1.98Z"/>
              <path class="st1" d="M260.1,342.7c-1.05-.06-1.98.76-1.98,1.8-.06,1.05.76,1.92,1.8,1.98s1.92-.76,1.98-1.8c.06-1.05-.76-1.98-1.8-1.98Z"/>
            </g>
          </g>
        </g>
      </g>
    </g>
    <path class="st4" d="M276.75,298.17c-9.75-16.91-25.82-6.8-30.34-5.42-4.76.54-23.48-2.59-25.88,16.79-1.26,9.99.42,15.17,2.95,18.24,1.21,1.4,2.34,2.49,3.46,3.27.09.03.18.07.27.1,5.3,1.69,16.13-4.45,21.79-9.15,2.95-2.45,8.81-1.28,13.74.4,2.85.87,5.16,1.79,5.34,1.83,4.39,1.08,10.11,1.38,13-8.07,1.14-3.79.72-9.27-4.33-18ZM240.21,299.55l1.02,3.55-1.87,3.37-3.37-1.87h-.06l-1.02-3.55,5.3-1.5ZM233.17,312.07l-1.49-5.24h-.02s0-.06,0-.06l.02.06,3.54-1.02,3.37,1.87-1.87,3.37-3.55,1.02ZM238.95,315.38l-1.02-3.55,1.87-3.37,3.37,1.87h.06l1.02,3.55-5.3,1.5ZM243.94,309.12l-3.37-1.87,1.87-3.37v-.06l3.55-1.02,1.5,5.3-3.55,1.02ZM260.44,304.61c-1.32.3-2.65-.54-2.95-1.87s.54-2.65,1.87-2.95c1.32-.3,2.65.54,2.95,1.87s-.54,2.65-1.87,2.95ZM260.92,297.44c-.3-1.32.54-2.65,1.87-2.95s2.65.54,2.95,1.87-.54,2.65-1.87,2.95c-1.32.3-2.65-.54-2.95-1.87ZM265.79,308.04c-1.32.3-2.65-.54-2.95-1.87s.54-2.65,1.87-2.95,2.65.54,2.95,1.87-.54,2.65-1.87,2.95ZM269.23,302.68c-1.32.3-2.65-.54-2.95-1.87-.3-1.32.54-2.65,1.87-2.95s2.65.54,2.95,1.87-.54,2.65-1.87,2.95Z"/>
  </g>
  <g>
    <path d="M310.49,281.22c0-1.55.54-2.85,1.61-3.9,1.07-1.05,2.36-1.58,3.86-1.58h33.23c1.5,0,2.79.52,3.86,1.58,1.07,1.05,1.61,2.35,1.61,3.9v25.8c0,1.55-.54,2.85-1.61,3.9-1.08,1.05-2.36,1.58-3.86,1.58h-33.23c-1.5,0-2.79-.52-3.86-1.58-1.08-1.05-1.61-2.35-1.61-3.9v-25.8ZM345.59,303.79v-19.35h-26.02v19.35h26.02Z"/>
    <path d="M362.91,259.99h9.08v43.42h28.27v-18.97h-22.65v-8.7h26.25c1.5,0,2.79.52,3.86,1.58,1.08,1.05,1.61,2.35,1.61,3.9v25.8c0,1.55-.54,2.85-1.61,3.9-1.08,1.05-2.36,1.58-3.86,1.58h-35.47c-1.5,0-2.79-.52-3.86-1.58-1.08-1.05-1.61-2.35-1.61-3.9v-47.02Z"/>
    <path d="M416.84,281.14c0-1.55.55-2.84,1.65-3.86,1.1-1.02,2.4-1.54,3.9-1.54h34.05c1.5,0,2.79.52,3.86,1.58,1.08,1.05,1.61,2.35,1.61,3.9v11.85c0,1.55-.54,2.85-1.61,3.9-1.08,1.05-2.36,1.57-3.86,1.57h-30.52v6.45h35.55v7.5h-39.15c-1.5,0-2.79-.52-3.86-1.58-1.08-1.05-1.61-2.35-1.61-3.9v-25.88ZM452.84,291.19v-8.1h-26.92v8.1h26.92Z"/>
    <path d="M469.41,259.99h9.08v52.5h-9.08v-52.5Z"/>
    <path d="M493.19,284.44h-7.95v-8.7h11.62c1.5,0,2.77.52,3.83,1.58,1.05,1.05,1.57,2.35,1.57,3.9v31.27h-9.07v-28.05Z"/>
    <path d="M525.88,293.82l-18.3-18.08h12.15l12.38,12.3,12.6-12.3h11.85l-18.52,18.08,18.97,18.67h-12.15l-13.12-12.98-13.28,12.98h-11.7l19.12-18.67Z"/>
    <path d="M568.71,284.44h-7.95v-8.7h11.62c1.5,0,2.78.52,3.83,1.58,1.05,1.05,1.58,2.35,1.58,3.9v31.27h-9.08v-28.05Z"/>
    <path d="M585.81,305.14h34.28v-8.1h-29.7c-1.5,0-2.79-.52-3.86-1.57-1.08-1.05-1.61-2.35-1.61-3.9v-10.43c0-1.55.54-2.84,1.61-3.86,1.07-1.02,2.36-1.54,3.86-1.54h36.3v7.35h-32.7v6.6h29.7c1.5,0,2.79.52,3.86,1.57,1.07,1.05,1.61,2.35,1.61,3.9v11.85c0,1.55-.54,2.85-1.61,3.9-1.08,1.05-2.36,1.58-3.86,1.58h-37.88v-7.35Z"/>
  </g>
  <g>
    <path d="M312.27,323.18h4.72c2.84,0,4.72,1.51,4.72,4v.04c0,2.72-2.27,4.12-4.95,4.12h-3.06v4.45h-1.42v-12.6ZM316.81,330.04c2.09,0,3.46-1.12,3.46-2.77v-.04c0-1.8-1.35-2.74-3.38-2.74h-3.19v5.55h3.11Z"/>
    <path d="M331.15,329.51v-.04c0-3.48,2.61-6.52,6.45-6.52s6.41,3.01,6.41,6.48v.04c0,3.48-2.61,6.52-6.45,6.52s-6.41-3.01-6.41-6.48ZM342.53,329.51v-.04c0-2.86-2.09-5.2-4.97-5.2s-4.93,2.3-4.93,5.17v.04c0,2.86,2.09,5.2,4.97,5.2s4.93-2.3,4.93-5.17Z"/>
    <path d="M352.8,323.18h1.55l3.6,10.5,3.46-10.53h1.17l3.46,10.53,3.6-10.5h1.49l-4.5,12.69h-1.21l-3.46-10.23-3.48,10.23h-1.19l-4.5-12.69Z"/>
    <path d="M381.12,323.18h9.11v1.3h-7.69v4.3h6.88v1.3h-6.88v4.41h7.78v1.3h-9.2v-12.6Z"/>
    <path d="M400.59,323.18h5.42c1.55,0,2.79.47,3.58,1.26.61.61.97,1.49.97,2.48v.04c0,2.09-1.44,3.31-3.42,3.67l3.87,5.15h-1.75l-3.65-4.9h-3.6v4.9h-1.42v-12.6ZM405.89,329.6c1.89,0,3.24-.97,3.24-2.59v-.04c0-1.55-1.19-2.48-3.22-2.48h-3.89v5.11h3.87Z"/>
    <path d="M459.47,323.18h4.72c2.84,0,4.72,1.51,4.72,4v.04c0,2.72-2.27,4.12-4.95,4.12h-3.06v4.45h-1.42v-12.6ZM464.01,330.04c2.09,0,3.46-1.12,3.46-2.77v-.04c0-1.8-1.35-2.74-3.38-2.74h-3.19v5.55h3.11Z"/>
    <path d="M478.91,323.18h9.11v1.3h-7.69v4.3h6.88v1.3h-6.88v4.41h7.78v1.3h-9.2v-12.6Z"/>
    <path d="M498.39,323.18h5.42c1.55,0,2.79.47,3.58,1.26.61.61.97,1.49.97,2.48v.04c0,2.09-1.44,3.31-3.42,3.67l3.87,5.15h-1.75l-3.66-4.9h-3.6v4.9h-1.42v-12.6ZM503.68,329.6c1.89,0,3.24-.97,3.24-2.59v-.04c0-1.55-1.19-2.48-3.22-2.48h-3.89v5.11h3.87Z"/>
    <path d="M518.82,323.18h9.06v1.31h-7.63v4.5h6.82v1.3h-6.82v5.49h-1.42v-12.6Z"/>
    <path d="M538.04,323.18h9.11v1.3h-7.69v4.3h6.88v1.3h-6.88v4.41h7.78v1.3h-9.2v-12.6Z"/>
    <path d="M556.96,329.51v-.04c0-3.57,2.67-6.52,6.37-6.52,2.29,0,3.66.81,4.92,2l-.97,1.04c-1.06-1.01-2.25-1.73-3.96-1.73-2.79,0-4.88,2.27-4.88,5.17v.04c0,2.92,2.11,5.2,4.88,5.2,1.73,0,2.86-.67,4.07-1.82l.94.92c-1.31,1.33-2.75,2.21-5.04,2.21-3.64,0-6.32-2.86-6.32-6.48Z"/>
    <path d="M581.55,324.49h-4.23v-1.31h9.9v1.31h-4.23v11.29h-1.44v-11.29Z"/>
    <path d="M597.3,323.18h9.11v1.3h-7.69v4.3h6.88v1.3h-6.88v4.41h7.78v1.3h-9.2v-12.6Z"/>
    <path d="M616.77,323.18h4.38c3.96,0,6.7,2.72,6.7,6.27v.04c0,3.55-2.74,6.3-6.7,6.3h-4.38v-12.6ZM618.19,324.49v9.98h2.95c3.19,0,5.22-2.16,5.22-4.95v-.04c0-2.79-2.03-4.99-5.22-4.99h-2.95Z"/>
  </g>
  <rect class="st1" x="430.6" y="325.23" width="7.41" height="7.59"/>
  <rect class="st1" x="492.44" y="261.04" width="9.07" height="9.3"/>
  <rect class="st1" x="567.96" y="261.04" width="9.08" height="9.3"/>
</svg>